<mxfile host="app.diagrams.net" modified="2024-03-16T15:04:50.539Z" agent="Mozilla/5.0 (Windows NT 10.0; Win64; x64) AppleWebKit/537.36 (KHTML, like Gecko) Chrome/122.0.0.0 Safari/537.36" etag="qvbL4JQkXnUVMbYUzNmf" version="24.0.7" type="device">
  <diagram name="Página-1" id="tVuC_nlV8bN2_D1jqeOM">
    <mxGraphModel dx="1393" dy="818" grid="1" gridSize="10" guides="1" tooltips="1" connect="1" arrows="1" fold="1" page="1" pageScale="1" pageWidth="1169" pageHeight="827" math="0" shadow="0">
      <root>
        <mxCell id="0" />
        <mxCell id="1" parent="0" />
        <mxCell id="e_mHhueJk98An35Hpw2q-25" value="" style="rounded=0;whiteSpace=wrap;html=1;" vertex="1" parent="1">
          <mxGeometry x="52" y="270" width="1018" height="370" as="geometry" />
        </mxCell>
        <mxCell id="e_mHhueJk98An35Hpw2q-5" value="&lt;font size=&quot;1&quot; style=&quot;&quot;&gt;&lt;b style=&quot;font-size: 20px;&quot;&gt;Aplicação web&lt;/b&gt;&lt;/font&gt;" style="rounded=0;whiteSpace=wrap;html=1;" vertex="1" parent="1">
          <mxGeometry x="40" y="20" width="260" height="70" as="geometry" />
        </mxCell>
        <mxCell id="e_mHhueJk98An35Hpw2q-6" value="" style="rounded=0;whiteSpace=wrap;html=1;" vertex="1" parent="1">
          <mxGeometry x="157.5" y="80" width="30" height="30" as="geometry" />
        </mxCell>
        <mxCell id="e_mHhueJk98An35Hpw2q-8" value="" style="rounded=0;orthogonalLoop=1;jettySize=auto;html=1;endArrow=halfCircle;endFill=0;endSize=6;strokeWidth=1;sketch=0;fontSize=12;curved=1;exitX=0.5;exitY=1;exitDx=0;exitDy=0;" edge="1" parent="1" source="e_mHhueJk98An35Hpw2q-6">
          <mxGeometry relative="1" as="geometry">
            <mxPoint x="177.5" y="185" as="sourcePoint" />
            <mxPoint x="172.5" y="170" as="targetPoint" />
          </mxGeometry>
        </mxCell>
        <mxCell id="e_mHhueJk98An35Hpw2q-10" value="Services" style="edgeLabel;html=1;align=center;verticalAlign=middle;resizable=0;points=[];" vertex="1" connectable="0" parent="e_mHhueJk98An35Hpw2q-8">
          <mxGeometry x="-0.2143" y="-1" relative="1" as="geometry">
            <mxPoint as="offset" />
          </mxGeometry>
        </mxCell>
        <mxCell id="e_mHhueJk98An35Hpw2q-9" value="" style="ellipse;whiteSpace=wrap;html=1;align=center;aspect=fixed;fillColor=none;strokeColor=none;resizable=0;perimeter=centerPerimeter;rotatable=0;allowArrows=0;points=[];outlineConnect=1;" vertex="1" parent="1">
          <mxGeometry x="152.5" y="180" width="10" height="10" as="geometry" />
        </mxCell>
        <mxCell id="e_mHhueJk98An35Hpw2q-16" value="" style="shape=module;align=left;spacingLeft=20;align=center;verticalAlign=top;whiteSpace=wrap;html=1;" vertex="1" parent="1">
          <mxGeometry x="250" y="30" width="40" height="50" as="geometry" />
        </mxCell>
        <mxCell id="e_mHhueJk98An35Hpw2q-17" value="" style="ellipse;whiteSpace=wrap;html=1;aspect=fixed;" vertex="1" parent="1">
          <mxGeometry x="167.5" y="180" width="10" height="10" as="geometry" />
        </mxCell>
        <mxCell id="e_mHhueJk98An35Hpw2q-24" value="" style="rounded=0;whiteSpace=wrap;html=1;" vertex="1" parent="1">
          <mxGeometry x="158.25" y="260" width="30" height="30" as="geometry" />
        </mxCell>
        <mxCell id="e_mHhueJk98An35Hpw2q-27" value="" style="endArrow=none;html=1;rounded=0;entryX=0.5;entryY=1;entryDx=0;entryDy=0;" edge="1" parent="1" target="e_mHhueJk98An35Hpw2q-17">
          <mxGeometry width="50" height="50" relative="1" as="geometry">
            <mxPoint x="173" y="260" as="sourcePoint" />
            <mxPoint x="190" y="170" as="targetPoint" />
          </mxGeometry>
        </mxCell>
        <mxCell id="e_mHhueJk98An35Hpw2q-28" value="API" style="edgeLabel;html=1;align=center;verticalAlign=middle;resizable=0;points=[];" vertex="1" connectable="0" parent="e_mHhueJk98An35Hpw2q-27">
          <mxGeometry x="0.1283" y="-1" relative="1" as="geometry">
            <mxPoint as="offset" />
          </mxGeometry>
        </mxCell>
        <mxCell id="e_mHhueJk98An35Hpw2q-32" value="&lt;font style=&quot;font-size: 20px;&quot;&gt;&lt;b&gt;Servidor web&lt;/b&gt;&lt;/font&gt;" style="text;html=1;align=center;verticalAlign=middle;resizable=0;points=[];autosize=1;strokeColor=none;fillColor=none;" vertex="1" parent="1">
          <mxGeometry x="486" y="300" width="150" height="40" as="geometry" />
        </mxCell>
        <mxCell id="e_mHhueJk98An35Hpw2q-39" value="" style="group" vertex="1" connectable="0" parent="1">
          <mxGeometry x="80" y="400" width="260" height="70" as="geometry" />
        </mxCell>
        <mxCell id="e_mHhueJk98An35Hpw2q-33" value="&lt;font size=&quot;1&quot; style=&quot;&quot;&gt;&lt;b style=&quot;font-size: 20px;&quot;&gt;Controllers&lt;/b&gt;&lt;/font&gt;" style="rounded=0;whiteSpace=wrap;html=1;" vertex="1" parent="e_mHhueJk98An35Hpw2q-39">
          <mxGeometry width="260" height="70" as="geometry" />
        </mxCell>
        <mxCell id="e_mHhueJk98An35Hpw2q-35" value="" style="shape=module;align=left;spacingLeft=20;align=center;verticalAlign=top;whiteSpace=wrap;html=1;" vertex="1" parent="e_mHhueJk98An35Hpw2q-39">
          <mxGeometry x="210" y="10" width="40" height="50" as="geometry" />
        </mxCell>
        <mxCell id="e_mHhueJk98An35Hpw2q-40" value="" style="group" vertex="1" connectable="0" parent="1">
          <mxGeometry x="189.5" y="520" width="260" height="70" as="geometry" />
        </mxCell>
        <mxCell id="e_mHhueJk98An35Hpw2q-41" value="&lt;font size=&quot;1&quot; style=&quot;&quot;&gt;&lt;b style=&quot;font-size: 20px;&quot;&gt;Services&lt;/b&gt;&lt;/font&gt;" style="rounded=0;whiteSpace=wrap;html=1;" vertex="1" parent="e_mHhueJk98An35Hpw2q-40">
          <mxGeometry width="260" height="70" as="geometry" />
        </mxCell>
        <mxCell id="e_mHhueJk98An35Hpw2q-42" value="" style="shape=module;align=left;spacingLeft=20;align=center;verticalAlign=top;whiteSpace=wrap;html=1;" vertex="1" parent="e_mHhueJk98An35Hpw2q-40">
          <mxGeometry x="210" y="10" width="40" height="50" as="geometry" />
        </mxCell>
        <mxCell id="e_mHhueJk98An35Hpw2q-43" value="" style="group" vertex="1" connectable="0" parent="1">
          <mxGeometry x="670" y="510" width="260" height="70" as="geometry" />
        </mxCell>
        <mxCell id="e_mHhueJk98An35Hpw2q-44" value="&lt;b style=&quot;font-size: 20px;&quot;&gt;Configuration&lt;/b&gt;" style="rounded=0;whiteSpace=wrap;html=1;" vertex="1" parent="e_mHhueJk98An35Hpw2q-43">
          <mxGeometry width="260" height="70" as="geometry" />
        </mxCell>
        <mxCell id="e_mHhueJk98An35Hpw2q-45" value="" style="shape=module;align=left;spacingLeft=20;align=center;verticalAlign=top;whiteSpace=wrap;html=1;" vertex="1" parent="e_mHhueJk98An35Hpw2q-43">
          <mxGeometry x="210" y="10" width="40" height="50" as="geometry" />
        </mxCell>
        <mxCell id="e_mHhueJk98An35Hpw2q-47" value="" style="shape=module;align=left;spacingLeft=20;align=center;verticalAlign=top;whiteSpace=wrap;html=1;" vertex="1" parent="1">
          <mxGeometry x="1020" y="295" width="40" height="50" as="geometry" />
        </mxCell>
        <mxCell id="e_mHhueJk98An35Hpw2q-48" value="" style="group" vertex="1" connectable="0" parent="1">
          <mxGeometry x="670" y="400" width="260" height="70" as="geometry" />
        </mxCell>
        <mxCell id="e_mHhueJk98An35Hpw2q-49" value="&lt;b style=&quot;font-size: 20px;&quot;&gt;Models&lt;/b&gt;" style="rounded=0;whiteSpace=wrap;html=1;" vertex="1" parent="e_mHhueJk98An35Hpw2q-48">
          <mxGeometry width="260" height="70" as="geometry" />
        </mxCell>
        <mxCell id="e_mHhueJk98An35Hpw2q-50" value="" style="shape=module;align=left;spacingLeft=20;align=center;verticalAlign=top;whiteSpace=wrap;html=1;" vertex="1" parent="e_mHhueJk98An35Hpw2q-48">
          <mxGeometry x="210" y="10" width="40" height="50" as="geometry" />
        </mxCell>
        <mxCell id="e_mHhueJk98An35Hpw2q-54" value="" style="rounded=0;whiteSpace=wrap;html=1;" vertex="1" parent="1">
          <mxGeometry x="799" y="250" width="30" height="30" as="geometry" />
        </mxCell>
        <mxCell id="e_mHhueJk98An35Hpw2q-58" value="&lt;font size=&quot;1&quot; style=&quot;&quot;&gt;&lt;b style=&quot;font-size: 20px;&quot;&gt;SGBD&lt;/b&gt;&lt;/font&gt;" style="rounded=0;whiteSpace=wrap;html=1;" vertex="1" parent="1">
          <mxGeometry x="680" y="20" width="260" height="70" as="geometry" />
        </mxCell>
        <mxCell id="e_mHhueJk98An35Hpw2q-62" value="" style="ellipse;whiteSpace=wrap;html=1;align=center;aspect=fixed;fillColor=none;strokeColor=none;resizable=0;perimeter=centerPerimeter;rotatable=0;allowArrows=0;points=[];outlineConnect=1;" vertex="1" parent="1">
          <mxGeometry x="793.5" y="170" width="10" height="10" as="geometry" />
        </mxCell>
        <mxCell id="e_mHhueJk98An35Hpw2q-63" value="" style="shape=module;align=left;spacingLeft=20;align=center;verticalAlign=top;whiteSpace=wrap;html=1;" vertex="1" parent="1">
          <mxGeometry x="891" y="30" width="40" height="50" as="geometry" />
        </mxCell>
        <mxCell id="e_mHhueJk98An35Hpw2q-64" value="" style="ellipse;whiteSpace=wrap;html=1;aspect=fixed;" vertex="1" parent="1">
          <mxGeometry x="808.5" y="170" width="10" height="10" as="geometry" />
        </mxCell>
        <mxCell id="e_mHhueJk98An35Hpw2q-65" value="" style="endArrow=none;html=1;rounded=0;entryX=0.5;entryY=1;entryDx=0;entryDy=0;" edge="1" parent="1">
          <mxGeometry width="50" height="50" relative="1" as="geometry">
            <mxPoint x="814" y="170" as="sourcePoint" />
            <mxPoint x="813.5" y="100" as="targetPoint" />
          </mxGeometry>
        </mxCell>
        <mxCell id="e_mHhueJk98An35Hpw2q-66" value="SQL" style="edgeLabel;html=1;align=center;verticalAlign=middle;resizable=0;points=[];" vertex="1" connectable="0" parent="e_mHhueJk98An35Hpw2q-65">
          <mxGeometry x="0.1283" y="-1" relative="1" as="geometry">
            <mxPoint as="offset" />
          </mxGeometry>
        </mxCell>
        <mxCell id="e_mHhueJk98An35Hpw2q-67" value="" style="rounded=0;orthogonalLoop=1;jettySize=auto;html=1;endArrow=halfCircle;endFill=0;endSize=6;strokeWidth=1;sketch=0;fontSize=12;curved=1;exitX=0.5;exitY=0;exitDx=0;exitDy=0;" edge="1" parent="1" source="e_mHhueJk98An35Hpw2q-54">
          <mxGeometry relative="1" as="geometry">
            <mxPoint x="813.26" y="240" as="sourcePoint" />
            <mxPoint x="813.26" y="190" as="targetPoint" />
          </mxGeometry>
        </mxCell>
        <mxCell id="e_mHhueJk98An35Hpw2q-68" value="SQL" style="edgeLabel;html=1;align=center;verticalAlign=middle;resizable=0;points=[];" vertex="1" connectable="0" parent="e_mHhueJk98An35Hpw2q-67">
          <mxGeometry x="-0.2143" y="-1" relative="1" as="geometry">
            <mxPoint as="offset" />
          </mxGeometry>
        </mxCell>
        <mxCell id="e_mHhueJk98An35Hpw2q-75" value="" style="endArrow=open;endSize=12;dashed=1;html=1;rounded=0;exitX=0.25;exitY=1;exitDx=0;exitDy=0;entryX=0.001;entryY=0.801;entryDx=0;entryDy=0;entryPerimeter=0;" edge="1" parent="1" source="e_mHhueJk98An35Hpw2q-33" target="e_mHhueJk98An35Hpw2q-41">
          <mxGeometry width="160" relative="1" as="geometry">
            <mxPoint x="152.5" y="480" as="sourcePoint" />
            <mxPoint x="170" y="576" as="targetPoint" />
            <Array as="points">
              <mxPoint x="145" y="576" />
            </Array>
          </mxGeometry>
        </mxCell>
        <mxCell id="e_mHhueJk98An35Hpw2q-76" value="" style="endArrow=open;endSize=12;dashed=1;html=1;rounded=0;entryX=-0.001;entryY=0.631;entryDx=0;entryDy=0;entryPerimeter=0;" edge="1" parent="1" target="e_mHhueJk98An35Hpw2q-44">
          <mxGeometry width="160" relative="1" as="geometry">
            <mxPoint x="449.5" y="554.8" as="sourcePoint" />
            <mxPoint x="609.5" y="554.8" as="targetPoint" />
          </mxGeometry>
        </mxCell>
        <mxCell id="e_mHhueJk98An35Hpw2q-77" value="" style="endArrow=open;endSize=12;dashed=1;html=1;rounded=0;entryX=0;entryY=0.25;entryDx=0;entryDy=0;" edge="1" parent="1" target="e_mHhueJk98An35Hpw2q-49">
          <mxGeometry width="160" relative="1" as="geometry">
            <mxPoint x="450" y="540" as="sourcePoint" />
            <mxPoint x="610" y="540" as="targetPoint" />
            <Array as="points">
              <mxPoint x="560" y="540" />
              <mxPoint x="560" y="418" />
            </Array>
          </mxGeometry>
        </mxCell>
        <mxCell id="e_mHhueJk98An35Hpw2q-78" value="Object Relational Mapping - ORM" style="endArrow=open;endSize=12;dashed=1;html=1;rounded=0;entryX=0.5;entryY=1;entryDx=0;entryDy=0;exitX=0.557;exitY=-0.035;exitDx=0;exitDy=0;exitPerimeter=0;" edge="1" parent="1" source="e_mHhueJk98An35Hpw2q-49" target="e_mHhueJk98An35Hpw2q-54">
          <mxGeometry width="160" relative="1" as="geometry">
            <mxPoint x="750" y="360" as="sourcePoint" />
            <mxPoint x="910" y="360" as="targetPoint" />
          </mxGeometry>
        </mxCell>
        <mxCell id="e_mHhueJk98An35Hpw2q-79" value="Rotas" style="endArrow=open;endSize=12;dashed=1;html=1;rounded=0;exitX=0.5;exitY=1;exitDx=0;exitDy=0;entryX=0.363;entryY=-0.014;entryDx=0;entryDy=0;entryPerimeter=0;" edge="1" parent="1">
          <mxGeometry width="160" relative="1" as="geometry">
            <mxPoint x="173.25" y="290" as="sourcePoint" />
            <mxPoint x="174.38000000000005" y="399.02" as="targetPoint" />
          </mxGeometry>
        </mxCell>
        <mxCell id="e_mHhueJk98An35Hpw2q-59" value="" style="rounded=0;whiteSpace=wrap;html=1;" vertex="1" parent="1">
          <mxGeometry x="797.5" y="80" width="30" height="30" as="geometry" />
        </mxCell>
      </root>
    </mxGraphModel>
  </diagram>
</mxfile>
